<svg width="25" height="25" viewBox="0 0 25 26" fill="none" xmlns="http://www.w3.org/2000/svg">
<path fill-rule="evenodd" clip-rule="evenodd" d="M20.0472 0.949923C19.3461 1.05262 19.05 1.25175 17.8842 2.40485L16.8112 3.46618L19.4164 6.07136L22.0215 8.67655L23.0827 7.60354C24.2466 6.42665 24.4322 6.14988 24.5606 5.39991C24.6496 4.88027 24.5678 4.34244 24.3192 3.81332C24.1792 3.51541 23.9328 3.22721 23.1279 2.41949C22.1238 1.41194 21.8311 1.1928 21.261 1.02181C20.9205 0.919753 20.4456 0.891602 20.0472 0.949923ZM8.62809 11.6589C4.96063 15.33 1.93293 18.3904 1.8998 18.4598C1.86666 18.5292 1.50443 19.9404 1.09486 21.5957C0.425176 24.3023 0.358082 24.6243 0.428143 24.7935C0.472325 24.9001 0.586947 25.0151 0.692796 25.059C0.860121 25.1283 1.18947 25.0597 3.8591 24.3994C5.49782 23.994 6.91053 23.6341 6.99845 23.5996C7.08644 23.5651 10.168 20.527 13.8465 16.8484L20.5347 10.16L17.9474 7.57205C16.5244 6.14874 15.3456 4.98416 15.3281 4.98416C15.3105 4.98416 12.2955 7.98781 8.62809 11.6589Z" fill="#464646"/>
</svg>
