<svg width="25" height="25" viewBox="0 0 23 24" fill="none" xmlns="http://www.w3.org/2000/svg">
<path d="M9.09754 3.89995V4.19995H13.8975V3.89995C13.8975 3.26344 13.6446 2.653 13.1945 2.20292C12.7445 1.75283 12.134 1.49998 11.4975 1.49998C10.861 1.49998 10.2506 1.75283 9.80048 2.20292C9.3504 2.653 9.09754 3.26344 9.09754 3.89995ZM7.59756 4.19995V3.89995C7.59756 2.86562 8.00845 1.87365 8.73983 1.14227C9.47122 0.410886 10.4632 0 11.4975 0C12.5318 0 13.5238 0.410886 14.2552 1.14227C14.9866 1.87365 15.3975 2.86562 15.3975 3.89995V4.19995H22.1474C22.3463 4.19995 22.5371 4.27896 22.6777 4.41962C22.8184 4.56027 22.8974 4.75103 22.8974 4.94994C22.8974 5.14885 22.8184 5.33961 22.6777 5.48026C22.5371 5.62091 22.3463 5.69993 22.1474 5.69993H20.3972L19.1972 20.0134C19.106 21.1003 18.6098 22.1133 17.8069 22.8517C17.004 23.59 15.953 23.9998 14.8623 23.9997H8.13276C7.04209 23.9996 5.99125 23.5898 5.18847 22.8515C4.3857 22.1132 3.88958 21.1002 3.79841 20.0134L2.59843 5.69993H0.847647C0.648737 5.69993 0.457974 5.62091 0.317323 5.48026C0.176673 5.33961 0.0976562 5.14885 0.0976562 4.94994C0.0976562 4.75103 0.176673 4.56027 0.317323 4.41962C0.457974 4.27896 0.648737 4.19995 0.847647 4.19995H7.59756ZM9.99753 9.74988C9.99753 9.65139 9.97814 9.55386 9.94044 9.46287C9.90275 9.37188 9.84751 9.2892 9.77787 9.21955C9.70822 9.14991 9.62554 9.09467 9.53455 9.05698C9.44356 9.01929 9.34603 8.99989 9.24754 8.99989C9.14905 8.99989 9.05153 9.01929 8.96053 9.05698C8.86954 9.09467 8.78686 9.14991 8.71722 9.21955C8.64758 9.2892 8.59233 9.37188 8.55464 9.46287C8.51695 9.55386 8.49755 9.65139 8.49755 9.74988V18.4498C8.49755 18.5483 8.51695 18.6458 8.55464 18.7368C8.59233 18.8278 8.64758 18.9105 8.71722 18.9801C8.78686 19.0497 8.86954 19.105 8.96053 19.1427C9.05153 19.1804 9.14905 19.1998 9.24754 19.1998C9.34603 19.1998 9.44356 19.1804 9.53455 19.1427C9.62554 19.105 9.70822 19.0497 9.77787 18.9801C9.84751 18.9105 9.90275 18.8278 9.94044 18.7368C9.97814 18.6458 9.99753 18.5483 9.99753 18.4498V9.74988ZM13.7475 8.99989C13.3335 8.99989 12.9975 9.33588 12.9975 9.74988V18.4498C12.9975 18.6487 13.0765 18.8394 13.2172 18.9801C13.3578 19.1207 13.5486 19.1998 13.7475 19.1998C13.9464 19.1998 14.1372 19.1207 14.2778 18.9801C14.4185 18.8394 14.4975 18.6487 14.4975 18.4498V9.74988C14.4975 9.33588 14.1615 8.99989 13.7475 8.99989Z" fill="#FFC258"/>
</svg>
