<svg width="25" height="25" viewBox="0 0 25 25" fill="none" xmlns="http://www.w3.org/2000/svg">
<path d="M1.11359 8.55687C0.746094 9.70812 0.546875 10.9353 0.546875 12.2089C0.546875 13.4825 0.746094 14.7097 1.11359 15.8609L12.5469 16.3827L23.9802 15.8609C24.3477 14.7092 24.5469 13.4825 24.5469 12.2089C24.5469 10.9353 24.3477 9.70859 23.9802 8.55687L12.5469 8.03516L1.11359 8.55687Z" fill="#2F2FE5"/>
<path d="M12.5466 24.2093C17.9006 24.2093 22.4348 20.703 23.9798 15.8613H1.11328C2.65828 20.7026 7.19297 24.2093 12.5466 24.2093Z" fill="#FA3B3B"/>
<path d="M12.5466 0.208984C7.19297 0.208984 2.65828 3.71523 1.11328 8.55695H23.9798C22.4348 3.71523 17.9002 0.208984 12.5466 0.208984Z" fill="white"/>
</svg>
