<svg width="32" height="32" viewBox="0 0 32 32" fill="none" xmlns="http://www.w3.org/2000/svg">
<g clip-path="url(#clip0_1915_110345)">
<rect x="0.611328" y="0.587891" width="67.1281" height="3.55309" fill="#BF0A30"/>
<rect x="0.611328" y="4.14062" width="67.1281" height="3.55309" fill="white"/>
<rect x="0.611328" y="7.69434" width="67.1281" height="3.55309" fill="#BF0A30"/>
<rect x="0.611328" y="11.2471" width="67.1281" height="3.55309" fill="white"/>
<rect x="0.611328" y="14.8008" width="67.1281" height="3.55309" fill="#BF0A30"/>
<rect x="0.611328" y="18.3535" width="67.1281" height="3.55309" fill="white"/>
<rect x="0.611328" y="21.9072" width="67.1281" height="3.55309" fill="#BF0A30"/>
<rect x="0.611328" y="25.46" width="67.1281" height="3.55309" fill="white"/>
<rect x="0.611328" y="29.0137" width="67.1281" height="3.55309" fill="#BF0A30"/>
<rect x="-11.5137" y="0.587891" width="26.3714" height="14.3463" fill="#002868"/>
<path d="M1.56591 1.95117L1.74953 2.5163H2.34375L1.86302 2.86557L2.04664 3.4307L1.56591 3.08143L1.08518 3.4307L1.2688 2.86557L0.788076 2.5163H1.38229L1.56591 1.95117Z" fill="white"/>
<path d="M1.56591 4.50684L1.74953 5.07197H2.34375L1.86302 5.42124L2.04664 5.98637L1.56591 5.6371L1.08518 5.98637L1.2688 5.42124L0.788076 5.07197H1.38229L1.56591 4.50684Z" fill="white"/>
<path d="M1.56591 7.06445L1.74953 7.62958H2.34375L1.86302 7.97885L2.04664 8.54398L1.56591 8.19471L1.08518 8.54398L1.2688 7.97885L0.788076 7.62958H1.38229L1.56591 7.06445Z" fill="white"/>
<path d="M1.56591 9.62109L1.74953 10.1862H2.34375L1.86302 10.5355L2.04664 11.1006L1.56591 10.7514L1.08518 11.1006L1.2688 10.5355L0.788076 10.1862H1.38229L1.56591 9.62109Z" fill="white"/>
<path d="M1.56591 12.1777L1.74953 12.7429H2.34375L1.86302 13.0921L2.04664 13.6573L1.56591 13.308L1.08518 13.6573L1.2688 13.0921L0.788076 12.7429H1.38229L1.56591 12.1777Z" fill="white"/>
<path d="M3.97411 1.95117L4.15774 2.5163H4.75195L4.27122 2.86557L4.45484 3.4307L3.97411 3.08143L3.49339 3.4307L3.67701 2.86557L3.19628 2.5163H3.79049L3.97411 1.95117Z" fill="white"/>
<path d="M3.97411 4.50684L4.15774 5.07197H4.75195L4.27122 5.42124L4.45484 5.98637L3.97411 5.6371L3.49339 5.98637L3.67701 5.42124L3.19628 5.07197H3.79049L3.97411 4.50684Z" fill="white"/>
<path d="M3.97411 7.06445L4.15774 7.62958H4.75195L4.27122 7.97885L4.45484 8.54398L3.97411 8.19471L3.49339 8.54398L3.67701 7.97885L3.19628 7.62958H3.79049L3.97411 7.06445Z" fill="white"/>
<path d="M3.97411 9.62109L4.15774 10.1862H4.75195L4.27122 10.5355L4.45484 11.1006L3.97411 10.7514L3.49339 11.1006L3.67701 10.5355L3.19628 10.1862H3.79049L3.97411 9.62109Z" fill="white"/>
<path d="M3.97411 12.1777L4.15774 12.7429H4.75195L4.27122 13.0921L4.45484 13.6573L3.97411 13.308L3.49339 13.6573L3.67701 13.0921L3.19628 12.7429H3.79049L3.97411 12.1777Z" fill="white"/>
<path d="M6.37841 1.95117L6.56203 2.5163H7.15625L6.67552 2.86557L6.85914 3.4307L6.37841 3.08143L5.89768 3.4307L6.0813 2.86557L5.60058 2.5163H6.19479L6.37841 1.95117Z" fill="white"/>
<path d="M6.37841 4.50684L6.56203 5.07197H7.15625L6.67552 5.42124L6.85914 5.98637L6.37841 5.6371L5.89768 5.98637L6.0813 5.42124L5.60058 5.07197H6.19479L6.37841 4.50684Z" fill="white"/>
<path d="M6.37841 7.06445L6.56203 7.62958H7.15625L6.67552 7.97885L6.85914 8.54398L6.37841 8.19471L5.89768 8.54398L6.0813 7.97885L5.60058 7.62958H6.19479L6.37841 7.06445Z" fill="white"/>
<path d="M6.37841 9.62109L6.56203 10.1862H7.15625L6.67552 10.5355L6.85914 11.1006L6.37841 10.7514L5.89768 11.1006L6.0813 10.5355L5.60058 10.1862H6.19479L6.37841 9.62109Z" fill="white"/>
<path d="M6.37841 12.1777L6.56203 12.7429H7.15625L6.67552 13.0921L6.85914 13.6573L6.37841 13.308L5.89768 13.6573L6.0813 13.0921L5.60058 12.7429H6.19479L6.37841 12.1777Z" fill="white"/>
<path d="M8.78466 1.95117L8.96828 2.5163H9.5625L9.08177 2.86557L9.26539 3.4307L8.78466 3.08143L8.30393 3.4307L8.48755 2.86557L8.00683 2.5163H8.60104L8.78466 1.95117Z" fill="white"/>
<path d="M8.78466 4.50684L8.96828 5.07197H9.5625L9.08177 5.42124L9.26539 5.98637L8.78466 5.6371L8.30393 5.98637L8.48755 5.42124L8.00683 5.07197H8.60104L8.78466 4.50684Z" fill="white"/>
<path d="M8.78466 7.06445L8.96828 7.62958H9.5625L9.08177 7.97885L9.26539 8.54398L8.78466 8.19471L8.30393 8.54398L8.48755 7.97885L8.00683 7.62958H8.60104L8.78466 7.06445Z" fill="white"/>
<path d="M8.78466 9.62109L8.96828 10.1862H9.5625L9.08177 10.5355L9.26539 11.1006L8.78466 10.7514L8.30393 11.1006L8.48755 10.5355L8.00683 10.1862H8.60104L8.78466 9.62109Z" fill="white"/>
<path d="M8.78466 12.1777L8.96828 12.7429H9.5625L9.08177 13.0921L9.26539 13.6573L8.78466 13.308L8.30393 13.6573L8.48755 13.0921L8.00683 12.7429H8.60104L8.78466 12.1777Z" fill="white"/>
<path d="M11.189 1.95117L11.3726 2.5163H11.9668L11.4861 2.86557L11.6697 3.4307L11.189 3.08143L10.7082 3.4307L10.8919 2.86557L10.4111 2.5163H11.0053L11.189 1.95117Z" fill="white"/>
<path d="M11.189 4.50684L11.3726 5.07197H11.9668L11.4861 5.42124L11.6697 5.98637L11.189 5.6371L10.7082 5.98637L10.8919 5.42124L10.4111 5.07197H11.0053L11.189 4.50684Z" fill="white"/>
<path d="M11.189 7.06445L11.3726 7.62958H11.9668L11.4861 7.97885L11.6697 8.54398L11.189 8.19471L10.7082 8.54398L10.8919 7.97885L10.4111 7.62958H11.0053L11.189 7.06445Z" fill="white"/>
<path d="M11.189 9.62109L11.3726 10.1862H11.9668L11.4861 10.5355L11.6697 11.1006L11.189 10.7514L10.7082 11.1006L10.8919 10.5355L10.4111 10.1862H11.0053L11.189 9.62109Z" fill="white"/>
<path d="M11.189 12.1777L11.3726 12.7429H11.9668L11.4861 13.0921L11.6697 13.6573L11.189 13.308L10.7082 13.6573L10.8919 13.0921L10.4111 12.7429H11.0053L11.189 12.1777Z" fill="white"/>
</g>
<defs>
<clipPath id="clip0_1915_110345">
<rect x="0.611328" y="0.587891" width="30.8789" height="30.8789" rx="15.4395" fill="white"/>
</clipPath>
</defs>
</svg>
