<svg width="22" height="22" viewBox="0 0 22 22" fill="none" xmlns="http://www.w3.org/2000/svg">
<path fill-rule="evenodd" clip-rule="evenodd" d="M9.71215 0.209085C7.93477 0.435203 6.23284 1.07056 4.75001 2.06163C3.92561 2.61269 2.41772 4.11943 1.86624 4.94321C1.05167 6.16014 0.474954 7.52172 0.164392 8.96119C-0.0547975 9.97722 -0.0547975 12.2196 0.164392 13.2356C0.642726 15.4529 1.59186 17.1917 3.20191 18.8005C4.81195 20.4093 6.55212 21.3578 8.77106 21.8357C9.78787 22.0548 12.032 22.0548 13.0488 21.8357C15.2677 21.3578 17.0079 20.4093 18.6179 18.8005C20.228 17.1917 21.1771 15.4529 21.6554 13.2356C21.8746 12.2196 21.8746 9.97722 21.6554 8.96119C21.1771 6.74394 20.228 5.0051 18.6179 3.39628C17.0364 1.81602 15.3731 0.893766 13.2199 0.403231C12.5057 0.240545 10.3869 0.123254 9.71215 0.209085ZM12.8203 4.3759C13.6992 4.7429 13.9135 5.89444 13.23 6.57758C12.2688 7.53805 10.6936 6.67778 10.9465 5.33038C11.0977 4.52559 12.035 4.04805 12.8203 4.3759ZM12.8759 7.8712C13.3509 8.11373 13.57 8.41235 13.621 8.88732C13.6554 9.20645 13.5057 9.68622 12.585 12.2073C11.9931 13.8281 11.5088 15.1649 11.5088 15.178C11.5088 15.1911 11.99 15.2019 12.5782 15.2019C13.7927 15.2019 13.75 15.1685 13.5213 15.9381C13.3711 16.4433 12.9162 17.0028 12.4185 17.2942C11.9707 17.5564 9.71618 17.9894 9.25179 17.9023C8.67181 17.7936 8.17218 17.1821 8.17218 16.5812C8.17218 16.4433 8.65342 15.0102 9.24161 13.3964C9.82979 11.7826 10.311 10.4514 10.311 10.4383C10.311 10.4253 9.82483 10.4145 9.23065 10.4145H8.15028L8.20632 10.0647C8.28768 9.5561 8.53202 9.13097 8.98032 8.71814C9.51495 8.22564 9.94358 8.05611 11.466 7.73476C11.9484 7.63303 12.5171 7.688 12.8759 7.8712Z" fill="white"/>
</svg>
