<svg width="27" height="27" viewBox="0 0 27 27" fill="none" xmlns="http://www.w3.org/2000/svg">
<path d="M26.8182 15.6173C26.6197 16.05 26.2852 16.2197 25.8107 16.1901C25.3842 16.164 24.9542 16.1901 24.5257 16.1819C24.3883 16.1819 24.3258 16.2169 24.2702 16.3577C23.9653 17.127 23.6466 17.8915 23.3197 18.6518C23.2661 18.7761 23.2696 18.8448 23.3657 18.9382C23.7091 19.272 24.0477 19.6134 24.3849 19.9541C24.7846 20.3593 24.7853 20.7865 24.3849 21.1904C23.4412 22.1378 22.496 23.0829 21.5492 24.0257C21.1371 24.4378 20.7133 24.4323 20.2937 24.0154C19.9592 23.6837 19.6234 23.3526 19.2951 23.0147C19.2038 22.9206 19.1358 22.9075 19.0094 22.9652C18.2107 23.3299 17.4051 23.6816 16.537 24.0642C16.537 24.5244 16.5548 25.08 16.5274 25.6329C16.5171 25.8321 16.4456 26.0746 16.3124 26.2078C16.1517 26.3566 15.9433 26.4435 15.7245 26.453C14.3454 26.4736 12.9657 26.4668 11.5859 26.4626C11.0908 26.4626 10.7776 26.1371 10.7741 25.6336C10.7741 25.1528 10.7659 24.672 10.7776 24.1947C10.7817 24.0305 10.7288 23.9653 10.5716 23.9048C9.81883 23.609 9.07161 23.2986 8.32988 22.9734C8.18222 22.9089 8.10598 22.9233 8.00228 23.0311C7.68086 23.3636 7.3512 23.6885 7.02292 24.014C6.60329 24.4316 6.18092 24.4364 5.76747 24.0243C4.82016 23.0806 3.87492 22.1357 2.93173 21.1897C2.52653 20.7838 2.52721 20.3566 2.92761 19.9534C3.26482 19.6099 3.60204 19.2706 3.94612 18.9368C4.04158 18.8441 4.04707 18.7754 3.9935 18.6504C3.66659 17.8901 3.34724 17.1263 3.0423 16.3563C2.98668 16.219 2.92693 16.1778 2.78751 16.1798C2.30676 16.1874 1.82601 16.1839 1.34526 16.1798C0.808876 16.1798 0.492264 15.8687 0.491577 15.3405C0.491577 13.9778 0.491577 12.6155 0.491577 11.2537C0.491577 10.7352 0.807497 10.4213 1.32259 10.4179C1.80334 10.4179 2.28409 10.4103 2.76484 10.422C2.92967 10.422 2.9908 10.3705 3.05123 10.2159C3.34884 9.46222 3.65972 8.71355 3.98389 7.96992C4.04844 7.82225 4.03265 7.74601 3.92551 7.6423C3.58212 7.30849 3.24285 6.96781 2.90632 6.62576C2.53958 6.2528 2.53202 5.81253 2.89739 5.44438C3.86393 4.47226 4.83344 3.50312 5.80593 2.53695C6.16512 2.18047 6.6081 2.18185 6.96935 2.53695C7.3306 2.89205 7.67606 3.23547 8.02288 3.59195C8.1156 3.68742 8.18359 3.69223 8.30858 3.63865C9.06954 3.31126 9.8344 2.99416 10.6031 2.68737C10.7405 2.63173 10.7803 2.56923 10.7783 2.43186C10.7707 2.00327 10.7961 1.5733 10.77 1.14677C10.7405 0.672842 10.9074 0.336973 11.3435 0.13916H15.9711C16.4065 0.336286 16.5699 0.673529 16.5445 1.14745C16.5184 1.64061 16.539 2.13652 16.539 2.5397C17.4023 2.92227 18.2072 3.27325 19.0067 3.63865C19.131 3.69498 19.1997 3.68811 19.2931 3.59195C19.6268 3.24852 19.9689 2.91059 20.3095 2.57335C20.714 2.17292 21.1412 2.17292 21.5457 2.57747C22.4926 3.5212 23.4378 4.46654 24.3815 5.41347C24.786 5.8194 24.7867 6.24662 24.387 6.6498C24.0497 6.99322 23.7125 7.33253 23.3678 7.66634C23.2723 7.75906 23.2668 7.82706 23.3204 7.95207C23.6477 8.71309 23.9648 9.47801 24.2716 10.2468C24.3272 10.3842 24.3876 10.4254 24.5271 10.4233C24.9549 10.4158 25.3849 10.4412 25.812 10.4144C26.2859 10.3849 26.6218 10.5518 26.8196 10.9879L26.8182 15.6173ZM2.04371 14.642H3.42484C4.00792 14.642 4.25242 14.8281 4.38016 15.3975C4.61952 16.46 5.04027 17.4733 5.62393 18.3929C5.92131 18.864 5.87942 19.18 5.47902 19.5818C5.15349 19.9094 4.8252 20.2343 4.49349 20.566C4.56216 20.6347 4.61093 20.6917 4.66449 20.746L6.38833 22.4721C6.69326 22.165 6.98789 21.8669 7.28115 21.5702C7.80929 21.0407 8.04417 21.0111 8.67052 21.3978C9.55232 21.9437 10.5191 22.3383 11.531 22.5655C12.1237 22.6987 12.3126 22.9405 12.3132 23.5538V24.9021H14.9917C14.9917 24.4131 14.9917 23.9405 14.9917 23.4714C14.9917 22.9673 15.1923 22.7097 15.6785 22.5964C16.7578 22.354 17.7878 21.9294 18.7244 21.3408C19.2134 21.0297 19.5231 21.0695 19.9345 21.4782C20.2607 21.8037 20.5856 22.1307 20.896 22.4398L22.795 20.5338C22.4516 20.1972 22.0986 19.8517 21.7511 19.498C21.4482 19.1896 21.3933 18.8482 21.6137 18.4945C22.2501 17.4968 22.7055 16.3947 22.9591 15.2388C23.0422 14.8625 23.3341 14.6461 23.7242 14.6372C24.0676 14.6289 24.411 14.6372 24.7544 14.6372H25.2475V11.9585H23.8904C23.2936 11.9585 23.0491 11.7716 22.9179 11.1899C22.6821 10.1444 22.2699 9.14677 21.6989 8.23986C21.374 7.72128 21.4104 7.43143 21.8507 6.99185C22.17 6.67384 22.4914 6.3572 22.7854 6.06667L20.8837 4.16135C20.554 4.49309 20.2133 4.84201 19.8651 5.18338C19.5389 5.50276 19.1935 5.55496 18.8178 5.31457C17.8352 4.68599 16.7488 4.23691 15.6091 3.98826C15.2183 3.90172 14.9958 3.6153 14.991 3.21281C14.9835 2.77597 14.991 2.33845 14.991 1.90161C14.991 1.82881 14.9807 1.756 14.9759 1.69144H12.3132C12.3132 2.18254 12.3132 2.66058 12.3132 3.13863C12.3132 3.61668 12.1127 3.89416 11.6388 4.00062C10.5179 4.25396 9.44913 4.69893 8.4796 5.31594C8.1108 5.55084 7.76878 5.50002 7.44942 5.19918C7.34365 5.0989 7.24338 4.99312 7.13968 4.89078C6.89037 4.63733 6.64313 4.3832 6.4316 4.16753L4.52783 6.07697C4.84169 6.3888 5.17753 6.71848 5.50925 7.05229C5.87256 7.41907 5.91513 7.74738 5.6411 8.18147C5.04694 9.11672 4.61852 10.1474 4.37467 11.2283C4.2483 11.7833 4.0038 11.9674 3.43308 11.9681H2.04371V14.642Z" fill="white"/>
<path d="M13.6565 20.8105C9.52064 20.8105 6.14851 17.4401 6.14783 13.3053C6.15073 11.3152 6.94243 9.40743 8.34939 8.00008C9.75634 6.59274 11.6638 5.80063 13.6537 5.79736C15.6436 5.79991 17.5514 6.59131 18.9589 7.99814C20.3663 9.40497 21.1587 11.3125 21.1624 13.3026C21.1593 15.2926 20.3675 17.2003 18.9606 18.6076C17.5537 20.0149 15.6463 20.8071 13.6565 20.8105ZM19.6198 13.2936C19.614 11.7114 18.981 10.1961 17.8596 9.08003C16.7382 7.96394 15.22 7.3382 13.6379 7.34003C12.0605 7.34727 10.55 7.97806 9.43576 9.0948C8.32157 10.2115 7.69415 11.7236 7.69036 13.3012C7.69254 14.8835 8.32216 16.4004 9.44113 17.5191C10.5601 18.6377 12.077 19.2669 13.6592 19.2685C15.2413 19.2647 16.7572 18.6336 17.8746 17.5135C18.992 16.3934 19.6197 14.8758 19.6198 13.2936Z" fill="white"/>
<path d="M12.3132 16.1872C12.421 16.3191 12.4993 16.4057 12.5686 16.4991C12.6875 16.6534 12.7434 16.8471 12.7249 17.0411C12.7064 17.235 12.615 17.4147 12.4691 17.5438C12.3244 17.6748 12.1346 17.7448 11.9395 17.7391C11.7444 17.7333 11.5591 17.6522 11.4224 17.5129C10.9224 16.9849 10.4341 16.4455 9.95748 15.8946C9.83808 15.7613 9.77291 15.5881 9.77482 15.4091C9.77673 15.2301 9.84557 15.0583 9.96778 14.9276C10.4394 14.3854 10.9222 13.8529 11.4162 13.3299C11.5543 13.1853 11.7442 13.1013 11.9441 13.0964C12.144 13.0915 12.3378 13.1661 12.4828 13.3038C12.625 13.4369 12.7119 13.6187 12.726 13.813C12.7401 14.0073 12.6805 14.1997 12.559 14.352C12.4938 14.4385 12.4217 14.5182 12.3111 14.6446H16.6852C16.9991 14.6446 17.2539 14.7579 17.4139 15.0375C17.4864 15.1551 17.5239 15.2909 17.5221 15.4291C17.5203 15.5672 17.4792 15.702 17.4036 15.8177C17.2429 16.0828 16.9957 16.1893 16.6894 16.1886C15.3446 16.1859 14.0004 16.1859 12.6566 16.1886L12.3132 16.1872Z" fill="white"/>
<path d="M15 10.4204C14.8956 10.2975 14.8235 10.2178 14.7576 10.134C14.6297 9.98119 14.566 9.78472 14.58 9.58593C14.5939 9.38713 14.6844 9.20148 14.8324 9.06803C14.9802 8.93354 15.1748 8.86249 15.3745 8.8702C15.5741 8.87791 15.7627 8.96376 15.8997 9.10924C16.3873 9.62575 16.8648 10.1523 17.3323 10.689C17.4599 10.8265 17.5304 11.0074 17.5294 11.1949C17.5283 11.3825 17.4559 11.5626 17.3268 11.6987C16.8584 12.2339 16.3804 12.7605 15.8928 13.2784C15.8251 13.3507 15.7437 13.4088 15.6533 13.4495C15.563 13.4902 15.4655 13.5125 15.3665 13.5153C15.2675 13.5182 15.1689 13.5013 15.0764 13.4659C14.9839 13.4304 14.8994 13.3769 14.8276 13.3086C14.6806 13.1741 14.5914 12.988 14.5786 12.7891C14.5658 12.5903 14.6304 12.3942 14.7589 12.242C14.8214 12.163 14.8901 12.0888 14.9849 11.9796C14.8613 11.9741 14.772 11.9665 14.6834 11.9665C13.3304 11.9665 11.9774 11.9665 10.6245 11.9665C10.0064 11.9665 9.61353 11.4171 9.85047 10.8902C9.99469 10.5674 10.2584 10.4246 10.6101 10.4246C11.963 10.4246 13.316 10.4246 14.669 10.4246L15 10.4204Z" fill="white"/>
</svg>
