<svg width="22" height="23" viewBox="0 0 22 23" fill="none" xmlns="http://www.w3.org/2000/svg">
<path fill-rule="evenodd" clip-rule="evenodd" d="M2.52161 1.15919C1.31607 1.73566 0.540412 2.68413 0.197354 4.00117C-1.15722 9.20174 4.64497 17.7585 11.9658 21.3565C16.4951 23.5825 20.4973 22.999 21.6646 19.9425C21.9265 19.2568 21.8512 18.3565 21.4821 17.7591C21.2014 17.305 17.8784 14.8651 17.0905 14.5345C16.037 14.0926 14.8089 14.5643 13.9961 15.723C13.6798 16.174 13.4253 16.4252 13.3367 16.374C11.7117 15.4343 7.28224 11.0049 6.3426 9.37983C6.29133 9.29128 6.54252 9.03678 6.99351 8.72046C8.15221 7.90764 8.62393 6.67952 8.18201 5.62606C7.84717 4.82772 5.4113 1.515 4.94927 1.22947C4.27861 0.815029 3.30058 0.786696 2.52161 1.15919Z" fill="white"/>
</svg>
