<svg width="22" height="14" viewBox="0 0 22 14" fill="none" xmlns="http://www.w3.org/2000/svg">
<path fill-rule="evenodd" clip-rule="evenodd" d="M7.79211 0.440952C7.64884 0.546245 7.6393 1.0132 7.66119 6.86843L7.68482 13.1824L10.813 13.2063C13.2551 13.225 13.957 13.2051 14.0139 13.1154C14.054 13.0524 14.0874 10.2135 14.0882 6.80675C14.0894 1.29592 14.0739 0.59721 13.9469 0.470114C13.8229 0.346289 13.4167 0.327393 10.8754 0.327393C8.67542 0.327393 7.90821 0.355646 7.79211 0.440952ZM0.117194 6.70491C-0.0390646 6.86117 -0.0390646 13.0534 0.117194 13.2096C0.27327 13.3657 6.19328 13.3657 6.34935 13.2096C6.50561 13.0534 6.50561 6.86117 6.34935 6.70491C6.19328 6.54883 0.27327 6.54883 0.117194 6.70491ZM15.4705 6.70491C15.3142 6.86117 15.3142 13.0534 15.4705 13.2096C15.6265 13.3657 21.5466 13.3657 21.7026 13.2096C21.8589 13.0534 21.8589 6.86117 21.7026 6.70491C21.5466 6.54883 15.6265 6.54883 15.4705 6.70491Z" fill="white"/>
</svg>
