<svg width="23" height="25" viewBox="0 0 23 25" fill="none" xmlns="http://www.w3.org/2000/svg">
<path fill-rule="evenodd" clip-rule="evenodd" d="M2.05769 2.47259C1.04755 3.47314 0.161595 4.40552 0.0888245 4.54434C0.0160538 4.68325 -0.0191339 4.89382 0.0105271 5.01228C0.0402802 5.13074 0.621525 5.78338 1.30216 6.46254C2.25325 7.41178 2.53963 7.7527 2.53963 7.93573C2.53963 8.55317 2.83688 9.06727 3.71999 9.97736C4.56781 10.8512 4.60143 10.8746 4.92844 10.8223C5.22045 10.7756 5.74559 10.863 6.18397 11.0312C6.2945 11.0736 6.31633 10.9002 6.31633 9.97837C6.31633 8.44844 6.60152 7.75095 7.49596 7.09315C8.34553 6.46843 9.07195 6.40294 10.9221 6.78448C12.3205 7.0728 13.7699 7.13442 14.3556 6.9303C14.8968 6.74183 15.2515 6.39815 15.2515 6.0623C15.2515 5.81423 15.0176 5.54148 13.4812 3.99773C12.5076 3.01938 11.6338 2.1944 11.5393 2.16446C11.4449 2.13453 10.2709 2.22378 8.93037 2.36288L6.4931 2.61583L5.49734 1.63453C4.63773 0.787532 4.46004 0.65332 4.19797 0.65332C3.92679 0.65332 3.69806 0.847683 2.05769 2.47259ZM16.1633 2.00428L14.7934 3.35523L15.6028 4.192C16.5098 5.12973 16.7064 5.55244 16.5991 6.33523C16.5304 6.83671 16.1674 7.50076 15.8474 7.71042L15.6229 7.85752L16.0423 8.26513C16.2729 8.48934 16.5728 8.90984 16.7086 9.19973L16.9556 9.72662L17.0016 12.7467L17.0477 15.7668L18.8209 13.9849C19.7961 13.0048 20.5921 12.1639 20.5897 12.1163C20.5873 12.0685 20.4694 10.931 20.3277 9.58845L20.0702 7.14741L21.0176 6.18021C21.5822 5.60375 21.9907 5.10716 22.0286 4.95112C22.0882 4.70563 21.9661 4.56304 20.0742 2.67128C18.3926 0.989631 18.0127 0.65332 17.7948 0.65332C17.5815 0.65332 17.2798 0.903228 16.1633 2.00428ZM8.77165 7.97267C8.57692 8.04212 8.31384 8.19568 8.18719 8.31404C7.70589 8.76356 7.69852 8.8169 7.69133 11.9097L7.68461 14.7929L7.51383 14.3127C7.18571 13.3898 6.59747 12.7383 5.74117 12.3497C5.21814 12.1123 4.97118 12.1227 4.70018 12.3938L4.47404 12.6199V15.1172C4.47404 16.6391 4.51079 17.6831 4.568 17.7902C4.61967 17.8868 5.50803 18.6539 6.54211 19.4949L8.42217 21.024L8.45165 22.4535C8.47993 23.8275 8.4895 23.8897 8.69851 24.0589C8.90144 24.2229 9.0959 24.2347 11.6107 24.2347C14.1975 24.2347 14.3152 24.2271 14.5482 24.0437L14.7909 23.8529V22.103V20.353L15.0799 19.933C15.6123 19.1592 15.6199 19.0805 15.6199 14.3929C15.6199 10.2465 15.6138 10.0943 15.4292 9.71308C15.1145 9.06303 14.8685 8.96981 11.9025 8.37502C10.4302 8.0798 9.20312 7.84011 9.17567 7.84232C9.14831 7.84454 8.96648 7.90321 8.77165 7.97267Z" fill="white"/>
</svg>
