<svg width="22" height="23" viewBox="0 0 22 23" fill="none" xmlns="http://www.w3.org/2000/svg">
<path fill-rule="evenodd" clip-rule="evenodd" d="M9.40767 0.904859C9.07203 1.04974 8.98009 1.27822 8.73433 2.5771C8.60014 3.2864 8.47461 3.88206 8.45524 3.90077C8.43597 3.91948 8.15851 4.05487 7.83863 4.2016L7.25705 4.46841L6.21763 3.70455C5.64596 3.28437 5.08707 2.91525 4.97558 2.88428C4.5824 2.77488 4.3034 2.95645 3.23777 4.01552C1.85218 5.39255 1.85875 5.33237 2.92627 6.88111L3.69121 7.99086L3.41825 8.58772L3.14529 9.18458L2.6308 9.2832C2.34784 9.33749 1.79211 9.42984 1.39586 9.48854C0.510436 9.61969 0.228742 9.76126 0.0997819 10.1399C0.0445778 10.302 0 11.0276 0 11.7644C0 12.8512 0.0280973 13.1444 0.152824 13.3606C0.236846 13.5062 0.367247 13.6496 0.442444 13.6791C0.580679 13.7334 2.07912 14.0302 2.75129 14.1365C3.09675 14.1911 3.12908 14.2245 3.35917 14.7652C3.4929 15.0793 3.60223 15.3729 3.60223 15.4177C3.60223 15.4625 3.32513 15.8772 2.98643 16.3393C2.10262 17.5451 2.07128 17.6008 2.07128 17.9651C2.07128 18.2649 2.17259 18.3974 3.18248 19.4192C4.58987 20.8432 4.48847 20.8311 6.0522 19.7622L7.19527 18.9809L7.67266 19.2083C7.93526 19.3334 8.1975 19.4362 8.2555 19.4366C8.36987 19.4377 8.36762 19.4283 8.64913 21.0504C8.81853 22.0263 8.8722 22.1863 9.10491 22.4099L9.36868 22.6633H10.8967H12.4248L12.6932 22.4099C12.9391 22.1776 12.9778 22.0526 13.1575 20.9122C13.2653 20.2279 13.3985 19.6223 13.4534 19.5667C13.5085 19.5109 13.7889 19.3703 14.0767 19.2542L14.6 19.0429L15.7427 19.8398C16.4371 20.3239 16.9748 20.6364 17.113 20.6362C17.4356 20.6355 17.6598 20.4609 18.7541 19.3571C20.0143 18.0863 20.0122 18.1143 18.9567 16.6345C18.5357 16.0442 18.1913 15.5313 18.1913 15.4948C18.1913 15.4582 18.2998 15.1734 18.4325 14.8617L18.6737 14.2949L19.986 14.0814C21.1446 13.8929 21.3272 13.8387 21.5458 13.6184C21.7795 13.3829 21.7945 13.318 21.8111 12.4632C21.8209 11.965 21.8227 11.2493 21.8153 10.8726C21.7956 9.8737 21.7188 9.81435 20.0778 9.52808C19.3622 9.40329 18.7463 9.3008 18.7091 9.30034C18.6719 9.29979 18.6412 9.24762 18.6406 9.18422C18.6402 9.1209 18.5384 8.84615 18.4145 8.57381L18.1893 8.07861L18.7081 7.35152C20.1597 5.31716 20.1607 5.54886 18.6933 4.06906C17.6706 3.03755 17.5452 2.94004 17.2427 2.94004C17.0266 2.94004 16.7819 3.03092 16.5383 3.20179C16.333 3.34575 15.8374 3.69626 15.4371 3.98068L14.7091 4.49782L14.1313 4.26086C13.8134 4.13063 13.5379 4.00962 13.5189 3.99201C13.4999 3.97441 13.3884 3.36852 13.2711 2.64549C12.9724 0.80569 13.0529 0.872417 11.0976 0.846058C10.2689 0.834906 9.50844 0.861357 9.40767 0.904859ZM12.3376 8.755C12.9914 9.06882 13.6443 9.73296 13.94 10.3851C14.2541 11.0777 14.3177 12.1096 14.0898 12.8185C13.4553 14.7925 11.1938 15.7312 9.36183 14.7811C8.1206 14.1374 7.50524 13.0263 7.58341 11.5697C7.65609 10.2146 8.35411 9.2291 9.62876 8.68164C10.0575 8.49749 10.2568 8.46957 10.9868 8.4915C11.6841 8.51252 11.9339 8.56127 12.3376 8.755Z" fill="white"/>
</svg>
