<svg width="200" height="81" viewBox="0 0 228 81" fill="none" xmlns="http://www.w3.org/2000/svg">
<path d="M65.4824 35.1598L80.3699 20.2723V0.130308L35.4886 0.130249L0.458984 35.1598V80.9171H46.2161L65.4824 61.6509V35.1598Z" fill="#FFC258"/>
<path d="M6.49756 72.4509H19.8858C29.527 72.4509 36.1369 66.6409 36.1369 57.7154C36.1369 48.79 29.527 42.98 19.8858 42.98H6.49756V72.4509ZM13.318 66.8514V48.5795H19.549C25.401 48.5795 29.2323 52.0739 29.2323 57.7154C29.2323 63.357 25.401 66.8514 19.549 66.8514H13.318Z" fill="#0D4B92"/>
<path d="M138.861 35.1598L153.748 20.2723V0.13031L108.867 0.130252L73.8374 35.1598V80.9171H119.595L138.861 61.6509V35.1598Z" fill="#FFC258"/>
<path d="M79.876 72.4509H101.474V66.8935H86.6964V42.98H79.876V72.4509Z" fill="#0D4B92"/>
<path d="M212.653 35.1598L227.54 20.2723V0.13031L182.659 0.130252L147.629 35.1598V80.9171H193.387L212.653 61.6509V35.1598Z" fill="#FFC258"/>
<path d="M167.772 72.956C172.908 72.956 177.16 71.1035 179.939 67.6933L175.561 63.6516C173.582 65.9672 171.098 67.146 168.151 67.146C162.635 67.146 158.72 63.2727 158.72 57.7153C158.72 52.158 162.635 48.2846 168.151 48.2846C171.098 48.2846 173.582 49.4635 175.561 51.737L179.939 47.6952C177.16 44.3271 172.908 42.4747 167.814 42.4747C158.636 42.4747 151.815 48.832 151.815 57.7153C151.815 66.5987 158.636 72.956 167.772 72.956Z" fill="#0D4B92"/>
</svg>
