<svg width="25" height="19" viewBox="0 0 25 19" fill="none" xmlns="http://www.w3.org/2000/svg">
<path d="M9.42177 9.64792C9.42177 10.4775 9.75078 11.2731 10.3364 11.8597C10.9221 12.4463 11.7164 12.7758 12.5446 12.7758C13.3729 12.7758 14.1672 12.4463 14.7528 11.8597C15.3385 11.2731 15.6675 10.4775 15.6675 9.64792C15.6675 8.81834 15.3385 8.02275 14.7528 7.43615C14.1672 6.84955 13.3729 6.52 12.5446 6.52C11.7164 6.52 10.9221 6.84955 10.3364 7.43615C9.75078 8.02275 9.42177 8.81834 9.42177 9.64792ZM24.6513 8.92738C22.008 3.3502 18.0124 0.543457 12.6562 0.543457C7.2971 0.543457 3.30429 3.3502 0.66101 8.93017C0.554987 9.15504 0.5 9.40063 0.5 9.64931C0.5 9.89799 0.554987 10.1436 0.66101 10.3685C3.30429 15.9456 7.29989 18.7524 12.6562 18.7524C18.0152 18.7524 22.008 15.9456 24.6513 10.3657C24.866 9.91323 24.866 9.38819 24.6513 8.92738ZM12.5446 14.5632C9.83443 14.5632 7.63727 12.3625 7.63727 9.64792C7.63727 6.93334 9.83443 4.73263 12.5446 4.73263C15.2548 4.73263 17.452 6.93334 17.452 9.64792C17.452 12.3625 15.2548 14.5632 12.5446 14.5632Z" fill="#7F7F7F"/>
</svg>
