<svg width="25" height="17" viewBox="0 0 25 17" fill="none" xmlns="http://www.w3.org/2000/svg">
<g clip-path="url(#clip0_1121_127564)">
<path d="M23.5801 16.6485H1.38867L10.0273 8.43152C10.6715 8.867 11.3063 9.28242 11.9268 9.71865C12.309 9.98767 12.669 9.99808 13.0526 9.73054C13.6059 9.34411 14.1699 8.97327 14.726 8.58981C14.8777 8.48577 14.9894 8.44118 15.1554 8.59947C17.9276 11.2481 20.7034 13.8922 23.4827 16.5318C23.5085 16.5564 23.5292 16.5876 23.5801 16.6485Z" fill="black" fill-opacity="0.5"/>
<path d="M1.54834 0.647827H23.4964C22.6748 1.20519 21.9326 1.70979 21.1897 2.2129C18.3745 4.11883 15.5594 6.02624 12.7442 7.93515C12.5947 8.03696 12.4852 8.10236 12.3019 7.97751C8.75342 5.56376 5.20229 3.15422 1.64854 0.748895C1.61332 0.717201 1.57987 0.683458 1.54834 0.647827V0.647827Z" fill="black" fill-opacity="0.5"/>
<path d="M0.5 1.97363L8.63622 7.48557L0.5 15.2247V1.97363Z" fill="black" fill-opacity="0.5"/>
<path d="M24.4988 15.2277L16.3618 7.48633L24.4988 1.97217V15.2277Z" fill="black" fill-opacity="0.5"/>
</g>
<defs>
<clipPath id="clip0_1121_127564">
<rect width="24" height="16" fill="white" transform="translate(0.5 0.647827)"/>
</clipPath>
</defs>
</svg>
