<svg width="26" height="37" viewBox="0 0 26 37" fill="none" xmlns="http://www.w3.org/2000/svg">
<path fill-rule="evenodd" clip-rule="evenodd" d="M10.4783 0.270115C6.34454 1.17911 3.15173 3.72361 1.33735 7.55505C-0.741969 11.9459 -0.418526 16.1547 2.46153 22.1803C4.162 25.738 6.55562 29.4967 9.76292 33.646C12.0422 36.5947 12.4346 37 13.0096 37C13.5846 37 13.977 36.5947 16.2563 33.646C21.4241 26.9606 24.6709 20.9609 25.7477 16.1078C26.1081 14.4837 26.0795 12.0373 25.6804 10.3245C25.284 8.62351 24.2041 6.36485 23.1325 4.99522C20.1171 1.14137 15.0761 -0.740951 10.4783 0.270115ZM14.3035 6.79744C18.4257 7.68127 20.7146 12.3776 18.9139 16.257C16.9041 20.5864 11.2664 21.4392 8.15738 17.884C6.87499 16.4175 6.2582 14.3173 6.54986 12.4097C7.13206 8.60212 10.6943 6.02363 14.3035 6.79744Z" fill="black" fill-opacity="0.5"/>
</svg>
