<svg width="36" height="24" viewBox="0 0 36 24" fill="none" xmlns="http://www.w3.org/2000/svg">
<g clip-path="url(#clip0_678_8386)">
<path d="M35.5818 24.0012H1.37012L14.688 11.6757C15.6811 12.3289 16.6598 12.952 17.6164 13.6064C18.2057 14.0099 18.7607 14.0255 19.3521 13.6242C20.205 13.0445 21.0745 12.4883 21.9318 11.9131C22.1657 11.757 22.3379 11.6902 22.5938 11.9276C26.8676 15.9005 31.147 19.8666 35.4318 23.8261C35.4715 23.8629 35.5035 23.9098 35.5818 24.0012Z" fill="black" fill-opacity="0.5"/>
<path d="M1.61621 0H35.4528C34.1861 0.836043 33.0419 1.59294 31.8966 2.34761C27.5566 5.2065 23.2166 8.06763 18.8766 10.931C18.6459 11.0837 18.4771 11.1818 18.1947 10.9945C12.724 7.3739 7.24939 3.75959 1.77068 0.151602C1.7164 0.104061 1.66482 0.0534457 1.61621 0Z" fill="black" fill-opacity="0.5"/>
<path d="M0 1.98865L12.5433 10.2566L0 21.8653V1.98865Z" fill="black" fill-opacity="0.5"/>
<path d="M36.9976 21.8698L24.4531 10.2577L36.9976 1.98645V21.8698Z" fill="black" fill-opacity="0.5"/>
</g>
<defs>
<clipPath id="clip0_678_8386">
<rect width="36" height="24" fill="white"/>
</clipPath>
</defs>
</svg>
