<svg width="25" height="17" viewBox="0 0 27 28" fill="none" xmlns="http://www.w3.org/2000/svg">
<path fill-rule="evenodd" clip-rule="evenodd" d="M1.31743 0.202615C0.43194 0.628085 -0.000105383 1.41119 1.92809e-08 2.59001C0.000527033 6.80281 1.43221 11.9443 3.62796 15.619C5.685 19.0616 8.61382 22.1015 11.9305 24.2367C15.4808 26.5222 20.4611 28.0126 24.506 27.9999C25.6576 27.9963 26.435 27.5112 26.8193 26.5563C27.0602 25.9576 27.0602 20.4198 26.8193 19.821C26.4369 18.8708 25.6568 18.3811 24.5195 18.3773C23.6006 18.3743 21.8475 18.1059 20.8496 17.8155C19.7688 17.5009 18.9948 17.441 18.5474 17.637C18.3464 17.7251 17.428 18.3892 16.5066 19.1127L14.8313 20.4282L14.1877 20.04C11.2562 18.2714 9.25088 16.1882 7.6496 13.2476L7.29956 12.6048L8.56576 10.8676C9.26215 9.91216 9.89647 8.97195 9.97531 8.7783C10.1895 8.25185 10.1518 7.70353 9.80245 6.27023C9.60461 5.45868 9.44376 4.42011 9.37283 3.49609C9.23233 1.66698 9.14305 1.29906 8.71807 0.796675C8.07363 0.0347904 7.8954 0 4.63761 0C2.03828 0 1.69551 0.0208962 1.31743 0.202615Z" fill="black" fill-opacity="0.5"/>
</svg>
