<svg width="24" height="24" viewBox="0 0 25 24" fill="none" xmlns="http://www.w3.org/2000/svg">
<path d="M24.2825 20.9803C24.1379 21.6842 23.7201 22.251 23.1315 22.7014C22.5794 23.1225 21.9555 23.3685 21.2281 23.353C20.8509 23.3449 20.4729 23.3685 20.0951 23.3693C17.4552 23.3738 14.8155 23.3779 12.1758 23.3816C9.53594 23.3777 6.89618 23.3736 4.25651 23.3693C3.87875 23.3693 3.50069 23.3449 3.12352 23.353C2.39606 23.3685 1.77223 23.1236 1.22007 22.7014C0.631471 22.2521 0.213694 21.6842 0.0691586 20.9803C-0.12256 20.0443 0.0805064 19.1885 0.726139 18.4254C1.13586 17.9408 1.64651 17.5943 2.2139 17.304C4.21968 16.2781 6.22486 15.2507 8.22945 14.2218C8.37518 14.1469 8.49433 14.157 8.63409 14.2143C9.0656 14.3917 9.48906 14.5944 9.93491 14.7317C10.658 14.9574 11.4151 15.0723 12.177 15.072C12.9389 15.0723 13.696 14.9574 14.4191 14.7317C14.8649 14.5944 15.2884 14.3917 15.7199 14.2143C15.8597 14.1581 15.9788 14.1469 16.1246 14.2218C18.1277 15.2532 20.1329 16.2806 22.1401 17.304C22.7075 17.5943 23.2181 17.9408 23.6279 18.4254C24.2711 19.1888 24.4742 20.0445 24.2825 20.9803Z" fill="#7F7F7F"/>
<path d="M5.81055 6.75097C5.82697 5.065 6.35046 3.54749 7.46733 2.22652C8.40114 1.12201 9.60491 0.399328 11.075 0.0927378C11.6424 -0.0251815 12.2236 -0.0164775 12.7966 0.0405168C14.7377 0.234241 16.1795 1.19809 17.2462 2.68584C18.2729 4.12053 18.6623 5.72142 18.5136 7.43827C18.3819 8.95775 17.8267 10.3236 16.7714 11.4908C15.7056 12.67 14.3558 13.3822 12.71 13.5445C11.2136 13.6919 9.86202 13.3028 8.68035 12.4392C7.13436 11.3094 6.22385 9.81659 5.93298 7.99642C5.86758 7.58511 5.84997 7.1665 5.81055 6.75097Z" fill="#7F7F7F"/>
</svg>
