<svg width="20" height="20" viewBox="0 0 19 20" fill="none" xmlns="http://www.w3.org/2000/svg">
<path d="M8.09725 16.3382C9.8938 16.3378 11.6386 15.7364 13.0538 14.6296L17.5032 19.0791L18.9344 17.6479L14.485 13.1985C15.5923 11.7831 16.1941 10.0379 16.1945 8.24092C16.1945 3.7763 12.5619 0.143677 8.09725 0.143677C3.63263 0.143677 0 3.7763 0 8.24092C0 12.7055 3.63263 16.3382 8.09725 16.3382ZM8.09725 2.16799C11.4465 2.16799 14.1702 4.8917 14.1702 8.24092C14.1702 11.5901 11.4465 14.3139 8.09725 14.3139C4.74802 14.3139 2.02431 11.5901 2.02431 8.24092C2.02431 4.8917 4.74802 2.16799 8.09725 2.16799Z" fill="black" fill-opacity="0.5"/>
</svg>
