<svg width="24" height="24" viewBox="0 0 29 18" fill="none" xmlns="http://www.w3.org/2000/svg">
<g clip-path="url(#clip0_677_8328)">
<path d="M27.8888 18.0008H1.07422L11.5126 8.75671C12.2909 9.24663 13.058 9.71398 13.8078 10.2047C14.2696 10.5074 14.7046 10.5191 15.1682 10.2181C15.8367 9.78337 16.5182 9.36619 17.1901 8.93479C17.3735 8.81775 17.5084 8.76758 17.709 8.94566C21.0588 11.9253 24.4128 14.9 27.7712 17.8696C27.8023 17.8972 27.8274 17.9323 27.8888 18.0008Z" fill="black" fill-opacity="0.5"/>
<path d="M1.2666 0H27.7872C26.7944 0.627032 25.8975 1.1947 24.9999 1.76071C21.5982 3.90488 18.1966 6.05072 14.795 8.19824C14.6142 8.31277 14.4819 8.38634 14.2605 8.24589C9.97274 5.53042 5.68179 2.81969 1.38768 0.113702C1.34513 0.078046 1.3047 0.0400843 1.2666 0Z" fill="black" fill-opacity="0.5"/>
<path d="M0 1.49146L9.83127 7.69238L0 16.3989V1.49146Z" fill="black" fill-opacity="0.5"/>
<path d="M28.9982 16.4024L19.166 7.69331L28.9982 1.48987V16.4024Z" fill="black" fill-opacity="0.5"/>
</g>
<defs>
<clipPath id="clip0_677_8328">
<rect width="29" height="18" fill="white"/>
</clipPath>
</defs>
</svg>
