<svg width="20" height="20" viewBox="0 0 18 19" fill="none" xmlns="http://www.w3.org/2000/svg">
<path d="M9.08668 2.03356C11.4152 2.03356 11.7327 2.03356 12.6853 2.03356C13.5321 2.03356 13.9554 2.2577 14.273 2.36977C14.6963 2.59391 15.0138 2.70598 15.3314 3.04218C15.6489 3.37839 15.8606 3.71459 15.9664 4.16286C16.0723 4.49907 16.1781 4.94734 16.284 5.84389C16.284 6.85251 16.284 7.07664 16.284 9.65422C16.284 12.2318 16.284 12.4559 16.284 13.4645C16.284 14.3611 16.0723 14.8094 15.9664 15.1456C15.7547 15.5938 15.6489 15.93 15.3314 16.2663C15.0138 16.6025 14.6963 16.8266 14.273 16.9387C13.9554 17.0507 13.5321 17.1628 12.6853 17.2749C11.7327 17.2749 11.5211 17.2749 9.08668 17.2749C6.6523 17.2749 6.44062 17.2749 5.48803 17.2749C4.6413 17.2749 4.21793 17.0507 3.9004 16.9387C3.47703 16.7145 3.1595 16.6025 2.84198 16.2663C2.52445 15.93 2.31276 15.5938 2.20692 15.1456C2.10108 14.8094 1.99524 14.3611 1.88939 13.4645C1.88939 12.4559 1.88939 12.2318 1.88939 9.65422C1.88939 7.07664 1.88939 6.85251 1.88939 5.84389C1.88939 4.94734 2.10108 4.49907 2.20692 4.16286C2.41861 3.71459 2.52445 3.37839 2.84198 3.04218C3.1595 2.70598 3.47703 2.48184 3.9004 2.36977C4.21793 2.2577 4.6413 2.14563 5.48803 2.03356C6.44062 2.03356 6.75814 2.03356 9.08668 2.03356ZM9.08668 0.352539C6.6523 0.352539 6.44062 0.352539 5.48803 0.352539C4.53545 0.352539 3.9004 0.576676 3.37119 0.800813C2.84198 1.02495 2.31276 1.36116 1.78355 1.9215C1.25434 2.48184 1.04266 2.93011 0.725128 3.60252C0.513443 4.16286 0.4076 4.83528 0.301758 5.84389C0.301758 6.85251 0.301758 7.18871 0.301758 9.65422C0.301758 12.2318 0.301758 12.4559 0.301758 13.4645C0.301758 14.4732 0.513443 15.1456 0.725128 15.7059C0.936813 16.2663 1.25434 16.8266 1.78355 17.3869C2.31276 17.9473 2.73613 18.1714 3.37119 18.5076C3.9004 18.7318 4.53545 18.8438 5.48803 18.9559C6.44062 18.9559 6.75814 18.9559 9.08668 18.9559C11.4152 18.9559 11.7327 18.9559 12.6853 18.9559C13.6379 18.9559 14.273 18.7318 14.8022 18.5076C15.3314 18.2835 15.8606 17.9473 16.3898 17.3869C16.919 16.8266 17.1307 16.3783 17.4482 15.7059C17.6599 15.1456 17.7657 14.4732 17.8716 13.4645C17.8716 12.4559 17.8716 12.1197 17.8716 9.65422C17.8716 7.18871 17.8716 6.85251 17.8716 5.84389C17.8716 4.83528 17.6599 4.16286 17.4482 3.60252C17.2365 3.04218 16.919 2.48184 16.3898 1.9215C15.8606 1.36116 15.4372 1.13702 14.8022 0.800813C14.273 0.576676 13.6379 0.464607 12.6853 0.352539C11.7327 0.352539 11.5211 0.352539 9.08668 0.352539Z" fill="#1E4382"/>
<path d="M9.08668 4.83527C6.54646 4.83527 4.53545 6.96457 4.53545 9.65422C4.53545 12.3439 6.54646 14.4732 9.08668 14.4732C11.6269 14.4732 13.6379 12.3439 13.6379 9.65422C13.6379 6.96457 11.6269 4.83527 9.08668 4.83527ZM9.08668 12.7921C7.49904 12.7921 6.12309 11.4473 6.12309 9.65422C6.12309 7.97319 7.3932 6.5163 9.08668 6.5163C10.6743 6.5163 12.0503 7.86112 12.0503 9.65422C12.0503 11.3352 10.6743 12.7921 9.08668 12.7921Z" fill="#1E4382"/>
<path d="M13.7437 5.84389C14.3283 5.84389 14.8022 5.34214 14.8022 4.72321C14.8022 4.10427 14.3283 3.60252 13.7437 3.60252C13.1592 3.60252 12.6853 4.10427 12.6853 4.72321C12.6853 5.34214 13.1592 5.84389 13.7437 5.84389Z" fill="#1E4382"/>
</svg>
