<svg width="28" height="29" viewBox="0 0 28 29" fill="none" xmlns="http://www.w3.org/2000/svg">
<path d="M27.5866 13.8016V15.4209C27.5697 15.516 27.5501 15.6105 27.5373 15.7063C27.4699 16.2035 27.4335 16.7061 27.3397 17.1986C26.8451 19.8921 25.5416 22.3707 23.6029 24.3043C21.5423 26.3851 19.0669 27.6953 16.1746 28.1939C15.6552 28.2836 15.1291 28.3369 14.6064 28.4064H12.9909C12.912 28.3909 12.8345 28.3733 12.7555 28.3598C11.8827 28.2114 10.9904 28.1338 10.1391 27.9038C3.21938 26.0302 -1.11297 19.0432 0.257621 12.0083C0.835673 9.03977 2.22448 6.51377 4.45507 4.48164C7.64683 1.57108 11.4241 0.411313 15.6971 0.954429C18.4207 1.30054 20.8199 2.41848 22.8778 4.23674C25.3013 6.37749 26.817 9.04179 27.3748 12.2364C27.4652 12.7545 27.5171 13.2801 27.5866 13.8016ZM2.39783 10.9923C0.839044 15.5666 2.30812 21.8546 7.91461 25.0492C13.0894 28.0002 19.2072 26.489 22.4947 22.8153C22.4647 22.7976 22.4357 22.7782 22.4077 22.7573C21.2651 21.835 20.9852 20.8642 21.4418 19.4669C21.6084 18.9569 21.7838 18.4448 21.887 17.9199C22.0104 17.2958 21.8776 17.0941 21.2799 16.8761C20.3883 16.5451 19.5409 16.105 18.7573 15.5659C18.1044 15.122 17.7293 14.5269 17.7833 13.7079C17.842 12.6873 18.2248 11.7121 18.876 10.9241C19.7232 9.89188 20.8024 9.49787 22.1136 9.91212C22.4684 10.0221 22.8232 10.1307 23.1605 10.263C23.7581 10.495 24.3692 10.4654 25.0113 10.3979C24.5683 9.2063 23.934 8.09493 23.1335 7.10749C22.6161 7.57976 22.005 7.75113 21.3939 7.51769C20.6655 7.23973 20.0483 7.34498 19.3745 7.67624C18.7505 7.98322 18.0754 7.92992 17.5331 7.44888C17.1807 7.13377 16.8727 6.77221 16.6178 6.37411C16.3075 5.8897 16.3392 5.35063 16.6798 4.88105C16.9415 4.51943 17.2558 4.19491 17.5567 3.86364C17.6983 3.70779 17.8636 3.5742 18.0484 3.40216C16.0443 2.64675 13.8756 2.4372 11.764 2.79495C11.9225 3.21527 12.079 3.59512 12.2099 3.98306C12.4318 4.64357 12.7124 5.29598 12.8345 5.97605C13.057 7.21611 12.6078 8.59448 10.8979 8.68691C10.4659 8.702 10.0521 8.86489 9.72566 9.14839C9.54963 9.28651 9.35561 9.4 9.14896 9.48573C8.7537 9.66519 8.33348 9.67059 7.90786 9.62066C7.59152 9.58491 7.26978 9.53431 6.94872 9.71107C7.00605 9.75627 7.04517 9.79068 7.08767 9.82037C7.73654 10.2771 8.47108 10.495 9.25013 10.5625C10.6194 10.6792 11.5752 11.3235 12.0156 12.6608C12.0669 12.818 12.1505 12.9657 12.2267 13.1418C12.3731 13.044 12.4817 12.9684 12.593 12.8962C12.9968 12.6222 13.4841 12.4989 13.9696 12.5481C14.864 12.6365 15.5601 13.0878 16.1233 13.7483C17.0818 14.8683 16.9328 16.3182 15.8954 17.1379C15.2829 17.621 14.7109 18.156 14.1207 18.6667C13.8813 18.8745 13.7417 19.1114 13.8509 19.4453C13.892 19.5923 13.9196 19.7427 13.9332 19.8947C14.0519 20.7933 13.6331 21.4579 12.7866 21.7163C12.3286 21.8553 12.3535 21.8593 12.276 22.3316C12.1917 22.8497 12.1289 23.3915 11.9259 23.8665C11.3984 25.0991 9.96038 25.2961 9.07071 24.2976C8.69096 23.8719 8.51155 23.3578 8.46366 22.8018C8.41509 22.2155 8.27412 21.6799 7.87751 21.2204C7.21784 20.4567 6.90015 19.5769 7.05529 18.5581C7.1369 18.0184 6.98784 17.5717 6.57504 17.2088C6.41586 17.0664 6.28433 16.8917 6.13864 16.7324C5.64827 16.1927 5.367 15.57 5.35621 14.8366C5.35216 14.5593 5.39196 14.28 5.37645 14.0034C5.36903 13.8786 5.30899 13.7133 5.21524 13.6424C4.19201 12.8625 3.22207 12.0279 2.39783 10.9923Z" fill="white" fill-opacity="0.6"/>
</svg>
