<svg width="32" height="31" viewBox="0 0 32 31" fill="none" xmlns="http://www.w3.org/2000/svg">
<path d="M29.2036 15.5568C29.0051 15.9895 28.6706 16.1591 28.196 16.1296C27.7695 16.1035 27.3396 16.1296 26.9111 16.1213C26.7737 16.1213 26.7112 16.1564 26.6556 16.2972C26.3506 17.0664 26.032 17.8309 25.7051 18.5912C25.6515 18.7156 25.6549 18.7843 25.7511 18.8777C26.0945 19.2115 26.4331 19.5528 26.7703 19.8935C27.17 20.2988 27.1707 20.726 26.7703 21.1298C25.8266 22.0772 24.8814 23.0223 23.9345 23.9652C23.5225 24.3773 23.0987 24.3718 22.6791 23.9549C22.3446 23.6231 22.0088 23.292 21.6805 22.9541C21.5892 22.86 21.5212 22.847 21.3948 22.9047C20.5961 23.2694 19.7905 23.621 18.9224 24.0036C18.9224 24.4638 18.9402 25.0195 18.9127 25.5724C18.9024 25.7716 18.831 26.014 18.6978 26.1473C18.537 26.2961 18.3287 26.383 18.1099 26.3925C16.7308 26.4131 15.3511 26.4062 13.9713 26.4021C13.4761 26.4021 13.163 26.0765 13.1595 25.5731C13.1595 25.0923 13.1513 24.6115 13.163 24.1341C13.1671 23.97 13.1142 23.9047 12.9569 23.8443C12.2042 23.5485 11.457 23.238 10.7153 22.9129C10.5676 22.8483 10.4914 22.8628 10.3877 22.9706C10.0662 23.303 9.73658 23.6279 9.4083 23.9535C8.98867 24.3711 8.56629 24.3759 8.15285 23.9638C7.20554 23.0201 6.2603 22.0752 5.31711 21.1292C4.9119 20.7232 4.91259 20.296 5.31298 19.8928C5.6502 19.5494 5.98741 19.2101 6.33149 18.8763C6.42696 18.7836 6.43245 18.7149 6.37888 18.5899C6.05197 17.8295 5.73261 17.0658 5.42768 16.2958C5.37205 16.1584 5.3123 16.1172 5.17289 16.1193C4.69213 16.1268 4.21138 16.1234 3.73063 16.1193C3.19425 16.1193 2.87764 15.8081 2.87695 15.28C2.87695 13.9172 2.87695 12.555 2.87695 11.1932C2.87695 10.6746 3.19287 10.3607 3.70796 10.3573C4.18871 10.3573 4.66947 10.3498 5.15022 10.3614C5.31505 10.3614 5.37617 10.3099 5.43661 10.1554C5.73422 9.40167 6.0451 8.653 6.36926 7.90938C6.43382 7.7617 6.41803 7.68546 6.31089 7.58175C5.96749 7.24794 5.62822 6.90726 5.2917 6.56521C4.92495 6.19226 4.9174 5.75198 5.28277 5.38383C6.24931 4.41171 7.21882 3.44257 8.19131 2.4764C8.5505 2.11993 8.99347 2.1213 9.35472 2.4764C9.71597 2.8315 10.0614 3.17493 10.4083 3.5314C10.501 3.62687 10.569 3.63168 10.694 3.57811C11.4549 3.25071 12.2198 2.93361 12.9885 2.62682C13.1259 2.57119 13.1657 2.50868 13.1636 2.37131C13.1561 1.94272 13.1815 1.51275 13.1554 1.08622C13.1259 0.612295 13.2928 0.276426 13.7289 0.0786133H18.3564C18.7919 0.275739 18.9553 0.612982 18.9299 1.08691C18.9038 1.58006 18.9244 2.07597 18.9244 2.47915C19.7877 2.86172 20.5926 3.2127 21.392 3.57811C21.5163 3.63443 21.585 3.62756 21.6784 3.5314C22.0122 3.18798 22.3542 2.85005 22.6949 2.51281C23.0994 2.11237 23.5266 2.11237 23.9311 2.51693C24.8779 3.46066 25.8232 4.40599 26.7668 5.35292C27.1714 5.75885 27.172 6.18607 26.7723 6.58925C26.4351 6.93268 26.0979 7.27198 25.7531 7.60579C25.6577 7.69851 25.6522 7.76651 25.7058 7.89152C26.0331 8.65255 26.3502 9.41747 26.6569 10.1863C26.7126 10.3237 26.773 10.3649 26.9124 10.3628C27.3403 10.3552 27.7702 10.3807 28.1974 10.3539C28.6713 10.3243 29.0071 10.4912 29.2049 10.9274L29.2036 15.5568ZM4.42909 14.5814H5.81022C6.3933 14.5814 6.6378 14.7676 6.76554 15.337C7.0049 16.3995 7.42565 17.4128 8.00931 18.3323C8.30669 18.8035 8.2648 19.1194 7.8644 19.5212C7.53886 19.8489 7.21058 20.1738 6.87886 20.5055C6.94754 20.5742 6.9963 20.6312 7.04987 20.6855L8.7737 22.4115C9.07864 22.1045 9.37327 21.8064 9.66653 21.5097C10.1947 20.9801 10.4295 20.9506 11.0559 21.3373C11.9377 21.8831 12.9045 22.2778 13.9164 22.5049C14.5091 22.6382 14.6979 22.8799 14.6986 23.4933V24.8416H17.3771C17.3771 24.3525 17.3771 23.88 17.3771 23.4109C17.3771 22.9067 17.5776 22.6492 18.0639 22.5358C19.1431 22.2935 20.1732 21.8689 21.1098 21.2803C21.5988 20.9691 21.9085 21.009 22.3199 21.4176C22.6461 21.7432 22.971 22.0701 23.2814 22.3792L25.1804 20.4732C24.837 20.1367 24.484 19.7912 24.1364 19.4374C23.8336 19.1291 23.7786 18.7877 23.9991 18.434C24.6354 17.4363 25.0909 16.3342 25.3445 15.1783C25.4276 14.8019 25.7195 14.5855 26.1096 14.5766C26.453 14.5684 26.7964 14.5766 27.1398 14.5766H27.6329V11.8979H26.2758C25.679 11.8979 25.4345 11.7111 25.3033 11.1293C25.0675 10.0839 24.6553 9.08623 24.0842 8.17931C23.7594 7.66074 23.7958 7.37089 24.236 6.9313C24.5554 6.61329 24.8768 6.29666 25.1707 6.00612L23.269 4.1008C22.9394 4.43255 22.5987 4.78147 22.2505 5.12283C21.9243 5.44222 21.5788 5.49442 21.2032 5.25402C20.2206 4.62544 19.1341 4.17636 17.9945 3.92771C17.6037 3.84117 17.3812 3.55476 17.3764 3.15226C17.3688 2.71543 17.3764 2.2779 17.3764 1.84107C17.3764 1.76826 17.3661 1.69546 17.3613 1.63089H14.6986C14.6986 2.12199 14.6986 2.60004 14.6986 3.07808C14.6986 3.55613 14.4981 3.83362 14.0242 3.94008C12.9033 4.19341 11.8345 4.63838 10.865 5.25539C10.4962 5.49029 10.1542 5.43947 9.8348 5.13863C9.72903 5.03835 9.62876 4.93257 9.52505 4.83023C9.27575 4.57679 9.0285 4.32265 8.81697 4.10698L6.9132 6.01642C7.22706 6.32825 7.5629 6.65794 7.89462 6.99175C8.25793 7.35852 8.30051 7.68684 8.02648 8.12093C7.43232 9.05618 7.0039 10.0869 6.76005 11.1678C6.63368 11.7228 6.38918 11.9068 5.81846 11.9075H4.42909V14.5814Z" fill="white" fill-opacity="0.6"/>
<path d="M16.0412 20.749C11.9054 20.749 8.53328 17.3786 8.53259 13.2438C8.5355 11.2537 9.32719 9.34591 10.7342 7.93856C12.1411 6.53122 14.0486 5.73911 16.0385 5.73584C18.0284 5.73838 19.9362 6.52979 21.3436 7.93662C22.7511 9.34345 23.5435 11.2509 23.5471 13.241C23.544 15.2311 22.7523 17.1388 21.3454 18.5461C19.9385 19.9534 18.0311 20.7455 16.0412 20.749ZM22.0046 13.2321C21.9988 11.6499 21.3658 10.1346 20.2444 9.01851C19.123 7.90242 17.6048 7.27667 16.0227 7.2785C14.4453 7.28575 12.9347 7.91654 11.8205 9.03328C10.7063 10.15 10.0789 11.6621 10.0751 13.2397C10.0773 14.822 10.7069 16.3389 11.8259 17.4575C12.9449 18.5762 14.4618 19.2054 16.044 19.207C17.626 19.2032 19.142 18.572 20.2594 17.452C21.3768 16.3319 22.0044 14.8143 22.0046 13.2321Z" fill="white" fill-opacity="0.6"/>
<path d="M14.6987 16.1257C14.8065 16.2576 14.8848 16.3441 14.9541 16.4375C15.073 16.5919 15.1289 16.7856 15.1104 16.9795C15.0919 17.1735 15.0005 17.3532 14.8546 17.4822C14.7099 17.6133 14.5201 17.6833 14.325 17.6776C14.1299 17.6718 13.9446 17.5907 13.8079 17.4513C13.3079 16.9234 12.8196 16.384 12.343 15.8331C12.2236 15.6998 12.1584 15.5266 12.1603 15.3476C12.1622 15.1686 12.2311 14.9968 12.3533 14.866C12.8249 14.3239 13.3077 13.7913 13.8017 13.2684C13.9398 13.1238 14.1297 13.0398 14.3296 13.0349C14.5295 13.03 14.7233 13.1046 14.8683 13.2423C15.0105 13.3754 15.0974 13.5572 15.1115 13.7515C15.1256 13.9457 15.066 14.1382 14.9445 14.2905C14.8793 14.377 14.8072 14.4567 14.6966 14.5831H19.0707C19.3846 14.5831 19.6394 14.6964 19.7994 14.9759C19.8719 15.0936 19.9094 15.2294 19.9076 15.3676C19.9058 15.5057 19.8647 15.6405 19.7891 15.7562C19.6284 16.0213 19.3812 16.1278 19.0749 16.1271C17.7301 16.1243 16.3859 16.1243 15.042 16.1271L14.6987 16.1257Z" fill="white" fill-opacity="0.6"/>
<path d="M17.3852 10.3589C17.2809 10.236 17.2087 10.1563 17.1428 10.0725C17.0149 9.91967 16.9513 9.7232 16.9652 9.5244C16.9792 9.3256 17.0697 9.13996 17.2177 9.00651C17.3654 8.87201 17.5601 8.80096 17.7597 8.80867C17.9594 8.81638 18.148 8.90223 18.2849 9.04772C18.7726 9.56423 19.2501 10.0908 19.7176 10.6275C19.8452 10.7649 19.9156 10.9458 19.9146 11.1334C19.9136 11.321 19.8412 11.5011 19.7121 11.6371C19.2437 12.1724 18.7657 12.699 18.2781 13.2169C18.2103 13.2892 18.1289 13.3473 18.0386 13.388C17.9483 13.4286 17.8508 13.451 17.7518 13.4538C17.6527 13.4566 17.5541 13.4398 17.4617 13.4043C17.3692 13.3689 17.2846 13.3154 17.2129 13.2471C17.0659 13.1126 16.9766 12.9264 16.9638 12.7276C16.951 12.5288 17.0157 12.3327 17.1442 12.1804C17.2067 12.1014 17.2754 12.0273 17.3701 11.9181C17.2465 11.9126 17.1572 11.905 17.0686 11.905C15.7157 11.905 14.3627 11.905 13.0097 11.905C12.3916 11.905 11.9988 11.3555 12.2357 10.8287C12.3799 10.5059 12.6437 10.363 12.9953 10.363C14.3483 10.363 15.7013 10.363 17.0542 10.363L17.3852 10.3589Z" fill="white" fill-opacity="0.6"/>
</svg>
