<svg width="53" height="53" viewBox="0 0 53 53" fill="none" xmlns="http://www.w3.org/2000/svg">
<rect width="53" height="53" rx="26.5" fill="#15903B"/>
<path fill-rule="evenodd" clip-rule="evenodd" d="M34.0032 18.1769C33.5697 18.2458 33.2119 18.4179 32.9048 18.705C32.7575 18.8428 32.3977 19.3444 28.5286 24.8077C26.21 28.0817 24.307 30.7636 24.2997 30.7675C24.2924 30.7715 23.527 29.8929 22.5989 28.815C21.6707 27.7371 20.8519 26.8026 20.7794 26.7383C20.2648 26.2828 19.4671 26.1177 18.7662 26.3218C18.151 26.5009 17.6472 26.9749 17.4812 27.5307C17.4265 27.7141 17.4079 28.0434 17.4419 28.2288C17.4909 28.4964 17.617 28.7715 17.7812 28.9689C18.2025 29.4753 22.9538 34.9708 23.0321 35.0423C23.4569 35.4295 24.0701 35.6243 24.6761 35.5648C25.1694 35.5163 25.6413 35.2956 25.9584 34.9651C26.0763 34.8422 36.0031 20.8423 36.1161 20.6396C36.1572 20.5658 36.2157 20.4333 36.246 20.3453C36.2964 20.1991 36.3012 20.1599 36.3015 19.8918C36.3019 19.5653 36.2752 19.443 36.1464 19.181C35.7947 18.4658 34.8804 18.0375 34.0032 18.1769Z" fill="white"/>
</svg>
