<svg width="20" height="20" viewBox="0 0 19 15" fill="none" xmlns="http://www.w3.org/2000/svg">
<path d="M18.1228 2.2154C17.4953 2.49366 16.7782 2.67917 16.0611 2.77192C16.7782 2.30816 17.4057 1.56615 17.6746 0.731383C16.9575 1.19514 16.2403 1.4734 15.3439 1.6589C14.7164 0.916886 13.7304 0.453125 12.7443 0.453125C10.7722 0.453125 9.15861 2.12266 9.15861 4.16319C9.15861 4.44145 9.15861 4.7197 9.24825 4.99795C6.29007 4.81245 3.6008 3.32843 1.80796 1.10238C1.53904 1.65889 1.35975 2.30816 1.35975 2.95742C1.35975 4.25594 1.98725 5.36897 2.97331 6.01823C2.34582 6.01823 1.80796 5.83273 1.35975 5.55447C1.35975 7.31675 2.61474 8.89353 4.22829 9.17178C3.95937 9.26453 3.60081 9.26454 3.24224 9.26454C2.97331 9.26454 2.79403 9.26453 2.5251 9.17178C2.97331 10.6558 4.31794 11.7688 5.9315 11.7688C4.67651 12.7891 3.1526 13.3456 1.4494 13.3456C1.18047 13.3456 0.911547 13.3456 0.552979 13.2529C2.16654 14.2731 4.04902 14.9224 6.11078 14.9224C12.7443 14.9224 16.33 9.26454 16.33 4.34869V3.88494C17.0471 3.60668 17.6746 2.95742 18.1228 2.2154Z" fill="#1E4382"/>
</svg>
