<svg width="27" height="27" viewBox="0 0 27 27" fill="none" xmlns="http://www.w3.org/2000/svg">
<path d="M13.4353 3.03003e-05C20.8464 -0.0155712 26.8729 5.9957 26.8986 13.4213C26.9244 20.8468 20.9003 26.8799 13.4634 26.8986C6.06159 26.9181 0.0195503 20.892 4.7253e-05 13.4813C-0.0194558 6.07059 6.00073 0.0164119 13.4353 3.03003e-05ZM13.4493 25.3135C15.0068 25.3154 16.5493 25.0102 17.9888 24.4155C19.4282 23.8208 20.7363 22.9482 21.8382 21.8477C22.9401 20.7471 23.8143 19.4401 24.4108 18.0015C25.0072 16.5628 25.3142 15.0207 25.3142 13.4634C25.3179 11.9037 25.0136 10.3585 24.4188 8.91665C23.824 7.47476 22.9505 6.16447 21.8482 5.06092C20.7458 3.95738 19.4365 3.08228 17.9952 2.48583C16.554 1.88937 15.0091 1.58329 13.4493 1.58515C11.8919 1.5834 10.3495 1.8886 8.91009 2.48327C7.47071 3.07795 6.16266 3.95046 5.06069 5.05091C3.95872 6.15137 3.08444 7.45821 2.48784 8.89672C1.89123 10.3352 1.584 11.8772 1.58369 13.4345C1.56809 19.9926 6.88305 25.3143 13.4493 25.3104V25.3135Z" fill="white" fill-opacity="0.6"/>
<path d="M13.4299 24.2787C9.85074 24.175 6.95493 22.7248 4.75265 19.8775C4.60131 19.6817 4.60443 19.5358 4.72379 19.3315C5.10214 18.6934 5.65213 18.2316 6.26062 17.8407C7.43081 17.0895 8.64077 16.4062 9.94435 15.9046C10.1613 15.8222 10.3702 15.7201 10.5684 15.5996C11.1145 15.2618 11.2994 14.6572 11.0131 14.0784C10.8812 13.8292 10.7244 13.594 10.545 13.3764C9.59252 12.1493 8.91226 10.8021 8.68914 9.24819C8.50971 7.99617 8.55652 6.75975 9.09012 5.58729C9.81408 3.99594 11.0865 3.15033 12.7988 2.93971C13.813 2.8149 14.8045 2.91241 15.7344 3.35783C17.1737 4.04742 17.9562 5.24484 18.2308 6.77691C18.6209 8.98141 18.0662 10.9761 16.786 12.7882C16.5676 13.1002 16.3328 13.3974 16.1346 13.7196C16.0144 13.9195 15.9245 14.1361 15.8678 14.3624C15.718 14.949 15.8733 15.3812 16.396 15.6885C16.8286 15.9288 17.2781 16.1374 17.7409 16.3126C18.833 16.7518 19.9065 17.2307 20.8738 17.9156C21.4106 18.2955 21.8779 18.7433 22.2055 19.3252C22.3124 19.514 22.3124 19.656 22.1696 19.8424C19.9681 22.7193 17.0552 24.1804 13.4299 24.2787Z" fill="white" fill-opacity="0.6"/>
</svg>
